<svg width="116" height="126" viewBox="0 0 116 126" fill="none" xmlns="http://www.w3.org/2000/svg">
<path d="M106.521 19.2924C111.014 18.5039 114.062 13.9482 113.329 9.11709C112.595 4.28595 108.359 1.00877 103.865 1.7973C99.3724 2.58584 96.3245 7.14148 97.0578 11.9726C97.7912 16.8038 102.028 20.0809 106.521 19.2924Z" fill="#FFA47B" stroke="#FFA47B" stroke-linecap="round" stroke-linejoin="round"/>
<path d="M110.422 15.4902C112.957 12.3866 112.672 7.66096 109.785 4.93528C106.899 2.2096 102.504 2.51602 99.9689 5.61969C97.4339 8.72336 97.7189 13.449 100.605 16.1747C103.492 18.9003 107.887 18.5939 110.422 15.4902Z" fill="white" stroke="#FF5811" stroke-linecap="round" stroke-linejoin="round"/>
<path d="M105.197 5.13617V10.5439H108.597" stroke="#263238" stroke-width="2" stroke-linecap="round" stroke-linejoin="round"/>
<path d="M83.5997 76.4255C83.5997 76.4255 90.5666 92.4135 90.5666 93.2576C90.5666 94.1017 84.3847 97.7171 83.2072 98.4767C82.2939 99.0362 81.3527 99.541 80.3877 99.989L81.0942 107.396C81.0942 107.396 91.7376 104.786 96.1991 102.177C100.661 99.567 100.504 96.6198 99.4699 92.2447C98.4364 87.8696 91.561 70.9601 91.561 70.9601L83.5997 76.4255Z" fill="white"/>
<g style="mix-blend-mode:multiply" opacity="0.5">
<path d="M96.1793 102.177C100.641 99.567 100.484 96.6198 99.4502 92.2447C98.4166 87.8696 91.5413 70.9601 91.5413 70.9601L90.4292 71.7198L90.0759 72.4232C90.0759 72.4232 96.4933 89.3608 96.8793 95.002C97.141 98.7933 90.0432 103.52 85.3528 106.221C88.833 105.229 93.5692 103.703 96.1793 102.177Z" fill="#FF5811"/>
</g>
<path d="M83.5997 76.4255C83.5997 76.4255 90.5666 92.4135 90.5666 93.2576C90.5666 94.1017 84.3847 97.7171 83.2072 98.4767C82.2939 99.0362 81.3527 99.541 80.3877 99.989L81.0942 107.396C81.0942 107.396 91.7376 104.786 96.1991 102.177C100.661 99.567 100.504 96.6198 99.4699 92.2447C98.4364 87.8696 91.561 70.9601 91.561 70.9601L83.5997 76.4255Z" stroke="#1C2520" stroke-linecap="round" stroke-linejoin="round"/>
<path d="M33.3329 72.8945C33.3329 72.8945 28.25 92.92 28.0995 96.458C27.9491 99.9961 38.1934 106.974 38.5663 107.396C38.9392 107.818 37.9841 95.2271 37.9841 95.2271L41.4578 76.939L33.3329 72.8945Z" fill="white"/>
<g style="mix-blend-mode:multiply" opacity="0.5">
<path d="M35.6618 74.5334L35.5506 73.9918L33.3329 72.8945C33.3329 72.8945 28.25 92.92 28.0995 96.458C27.9491 99.9961 38.1934 106.974 38.5663 107.396C38.7168 107.565 38.6579 105.679 38.5336 103.351C35.4852 100.573 31.1087 96.662 30.5985 95.0161" fill="#FF5811"/>
</g>
<path d="M33.3329 72.8945C33.3329 72.8945 28.25 92.92 28.0995 96.458C27.9491 99.9961 38.1934 106.974 38.5663 107.396C38.9392 107.818 37.9841 95.2271 37.9841 95.2271L41.4578 76.939L33.3329 72.8945Z" stroke="#1C2520" stroke-linecap="round" stroke-linejoin="round"/>
<path d="M57.2037 52.7775C57.2037 52.7775 55.2412 54.2969 51.4143 54.4657C47.5874 54.6345 47.4042 51.6521 42.6484 51.6521C36.8851 51.6521 29.6565 71.2556 29.6565 71.2556C29.6565 71.2556 33.2544 75.0469 36.7804 76.6436C38.731 77.5623 40.7817 78.2123 42.8839 78.5779L43.4334 91.4569H82.252L82.7164 78.5779L94.8514 70.1161C94.8514 70.1161 88.8984 58.6719 86.0069 54.3813C83.1155 50.0906 78.255 51.6873 76.77 52.7775C75.285 53.8678 70.8825 54.1281 69.2601 53.8748C67.1437 53.3712 65.0521 52.7538 62.9931 52.0249C62.9931 52.0249 60.4942 49.7881 57.2037 52.7775Z" fill="#FF814C" stroke="#1C2520" stroke-linecap="round" stroke-linejoin="round"/>
<path d="M43.2764 57.3214L43.1194 78.6974" stroke="#1C2520" stroke-width="0.5" stroke-linecap="round" stroke-linejoin="round"/>
<path d="M44.6829 59.2628C44.6829 59.2628 45.2324 69.694 47.2996 75.504" stroke="#1C2520" stroke-width="0.5" stroke-linecap="round" stroke-linejoin="round"/>
<path d="M47.6594 76.3411C48.1059 77.759 48.6549 79.1371 49.3014 80.4629" stroke="#1C2520" stroke-width="0.5" stroke-linecap="round" stroke-linejoin="round"/>
<path d="M45.9324 58.0811C46.675 61.874 47.7235 65.5902 49.0659 69.1876" stroke="#1C2520" stroke-width="0.5" stroke-linecap="round" stroke-linejoin="round"/>
<path d="M79.6745 59.931C79.6745 59.931 77.797 68.1818 76.1484 71.8887" stroke="#1C2520" stroke-width="0.5" stroke-linecap="round" stroke-linejoin="round"/>
<path d="M82.7164 78.613L82.6379 61.9497" stroke="#1C2520" stroke-width="0.5" stroke-linecap="round" stroke-linejoin="round"/>
<path d="M81.8596 62.2874C81.8596 62.2874 80.4466 72.8382 77.0056 78.3598" stroke="#1C2520" stroke-width="0.5" stroke-linecap="round" stroke-linejoin="round"/>
<path d="M80.139 76.2567C80.139 76.2567 78.569 79.4571 77.4766 81.1382" stroke="#1C2520" stroke-width="0.5" stroke-linecap="round" stroke-linejoin="round"/>
<path d="M55.0122 54.0436C55.0122 54.0436 56.1112 61.2815 57.6747 64.9814C59.2381 68.6812 61.9791 69.4408 64.3276 68.3506C66.6761 67.2603 68.3966 61.8653 68.2526 54.9862" stroke="#1C2520" stroke-width="0.5" stroke-linecap="round" stroke-linejoin="round"/>
<path d="M49.4584 38.8926C49.4584 38.8926 47.9669 36.1213 46.7959 37.5492C45.6249 38.977 47.7379 42.2619 48.9089 43.3521C50.0798 44.4424 50.9434 43.7742 50.8714 42.5995C50.7994 41.4248 49.4584 38.8926 49.4584 38.8926Z" fill="#FF5811" stroke="#1C2520" stroke-linecap="round" stroke-linejoin="round"/>
<path opacity="0.5" d="M49.4584 38.8926C49.4584 38.8926 47.9669 36.1213 46.7959 37.5492C45.6249 38.977 47.7379 42.2619 48.9089 43.3521C50.0798 44.4424 50.9434 43.7742 50.8714 42.5995C50.7994 41.4248 49.4584 38.8926 49.4584 38.8926Z" fill="white"/>
<path d="M49.4584 38.8926C49.4584 38.8926 47.9669 36.1213 46.7959 37.5492C45.6249 38.977 47.7379 42.2619 48.9089 43.3521C50.0798 44.4424 50.9434 43.7742 50.8714 42.5995C50.7994 41.4248 49.4584 38.8926 49.4584 38.8926Z" stroke="#1C2520" stroke-linecap="round" stroke-linejoin="round"/>
<path d="M73.1328 38.8926C73.1328 38.8926 74.6177 36.1213 75.7952 37.5492C76.9727 38.977 74.8532 42.2619 73.6823 43.3521C72.5113 44.4424 71.6413 43.7742 71.7198 42.5995C71.7983 41.4248 73.1328 38.8926 73.1328 38.8926Z" fill="#FF5811" stroke="#1C2520" stroke-linecap="round" stroke-linejoin="round"/>
<path opacity="0.5" d="M73.1328 38.8926C73.1328 38.8926 74.6177 36.1213 75.7952 37.5492C76.9727 38.977 74.8532 42.2619 73.6823 43.3521C72.5113 44.4424 71.6413 43.7742 71.7198 42.5995C71.7983 41.4248 73.1328 38.8926 73.1328 38.8926Z" fill="white"/>
<path d="M73.1328 38.8926C73.1328 38.8926 74.6177 36.1213 75.7952 37.5492C76.9727 38.977 74.8532 42.2619 73.6823 43.3521C72.5113 44.4424 71.6413 43.7742 71.7198 42.5995C71.7983 41.4248 73.1328 38.8926 73.1328 38.8926Z" stroke="#1C2520" stroke-linecap="round" stroke-linejoin="round"/>
<path d="M56.4973 52.1937C57.2362 55.7853 58.1778 59.3252 59.3168 62.7938C60.7298 66.578 63.3858 66.578 64.4848 64.1373C65.5838 61.6965 66.2837 52.6017 66.2837 52.6017C66.2837 52.6017 58.9243 53.706 56.4973 52.1937Z" fill="white" stroke="#1C2520" stroke-linecap="round" stroke-linejoin="round"/>
<path d="M49.6153 39.8211C49.6153 39.8211 51.6498 47.5584 55.5029 52.1093C59.3559 56.6603 60.7362 57.7364 62.7838 57.4059C64.8314 57.0753 67.0098 54.2125 70.0582 48.2618C73.1067 42.3111 73.3291 37.7461 73.5842 37.3241C73.8393 36.902 72.93 28.4895 68.5732 24.8671C64.2164 21.2446 59.3363 19.6549 55.1104 23.608C50.8844 27.561 48.2023 34.0111 49.6153 39.8211Z" fill="white"/>
<g style="mix-blend-mode:multiply" opacity="0.5">
<path d="M68.5536 24.8389C64.1707 21.2235 59.3167 19.6268 55.0908 23.5798C50.8648 27.5329 48.2023 34.0111 49.6153 39.8211C49.6153 39.8211 50.0013 41.3123 50.7667 43.338C50.7644 43.0787 50.7975 42.8204 50.8648 42.5714C51.8003 39.385 54.5609 33.2163 63.8501 36.0439C71.2292 38.2807 70.3265 45.2583 69.6396 48.9792L70.0386 48.2055C73.0936 42.2337 73.3095 37.6898 73.5646 37.2678C73.8197 36.8458 72.9366 28.4614 68.5536 24.8389Z" fill="#FF5811"/>
</g>
<path d="M49.6153 39.8211C49.6153 39.8211 51.6498 47.5584 55.5029 52.1093C59.3559 56.6603 60.7362 57.7364 62.7838 57.4059C64.8314 57.0753 67.0098 54.2125 70.0582 48.2618C73.1067 42.3111 73.3291 37.7461 73.5842 37.3241C73.8393 36.902 72.93 28.4895 68.5732 24.8671C64.2164 21.2446 59.3363 19.6549 55.1104 23.608C50.8844 27.561 48.2023 34.0111 49.6153 39.8211Z" stroke="#1C2520" stroke-linecap="round" stroke-linejoin="round"/>
<path d="M62.7642 43.8585C62.5216 45.5014 62.3904 47.1611 62.3717 48.8245C62.4502 50.5056 62.9212 51.012 62.2147 51.1808C61.5082 51.3496 60.7297 50.1679 60.7297 50.1679" stroke="#1C2520" stroke-linecap="round" stroke-linejoin="round"/>
<path d="M54.9338 45.209C55.3873 45.5612 55.9292 45.7577 56.4884 45.7728C57.0477 45.7879 57.598 45.6208 58.0673 45.2934" stroke="#1C2520" stroke-linecap="round" stroke-linejoin="round"/>
<path d="M64.8772 45.209C65.3297 45.5606 65.8704 45.7568 66.4285 45.7719C66.9866 45.7869 67.5359 45.6202 68.0042 45.2934" stroke="#1C2520" stroke-linecap="round" stroke-linejoin="round"/>
<path d="M59.9316 42.3744C59.9316 42.3744 58.4401 38.4143 53.5142 40.2642" stroke="#1C2520" stroke-linecap="round" stroke-linejoin="round"/>
<path d="M64.0332 41.8891C64.0332 41.8891 65.2827 38.0134 69.7441 40.2853" stroke="#1C2520" stroke-linecap="round" stroke-linejoin="round"/>
<path d="M60.8802 45.4974C60.8802 47.6639 58.571 49.4153 55.7188 49.4153C52.8666 49.4153 50.5508 47.6639 50.5508 45.4974C50.5508 43.331 52.7096 42.4307 55.5618 42.4307C58.414 42.4307 60.8802 43.338 60.8802 45.4974Z" stroke="#1C2520" stroke-linecap="round" stroke-linejoin="round"/>
<path d="M72.7796 45.4974C72.7796 47.6639 70.4638 49.4153 67.6116 49.4153C64.7594 49.4153 62.4502 47.6639 62.4502 45.4974C62.4502 43.331 64.6024 42.4307 67.4546 42.4307C70.3068 42.4307 72.7796 43.338 72.7796 45.4974Z" stroke="#1C2520" stroke-linecap="round" stroke-linejoin="round"/>
<g style="mix-blend-mode:multiply" opacity="0.5">
<path d="M6.16511 118.488C6.16511 118.488 3.37178 120.549 5.11842 121.302C6.86507 122.054 26.9416 121.492 29.3882 120.739C31.8349 119.986 34.6216 113.044 34.6216 111.919C34.6216 110.793 31.1022 109.984 29.8069 109.921C28.5117 109.858 11.3985 110.976 11.3985 110.976L6.16511 118.488Z" fill="#FF5811"/>
</g>
<g style="mix-blend-mode:multiply" opacity="0.5">
<path d="M106.031 122.054C109.984 122.054 113.188 120.625 113.188 118.861C113.188 117.097 109.984 115.668 106.031 115.668C102.079 115.668 98.8745 117.097 98.8745 118.861C98.8745 120.625 102.079 122.054 106.031 122.054Z" fill="#FF5811"/>
</g>
<g style="mix-blend-mode:multiply" opacity="0.5">
<path d="M60.4681 126C74.6415 126 86.1313 123.689 86.1313 120.838C86.1313 117.986 74.6415 115.675 60.4681 115.675C46.2947 115.675 34.8049 117.986 34.8049 120.838C34.8049 123.689 46.2947 126 60.4681 126Z" fill="#FF5811"/>
</g>
<path d="M100.798 106.298C100.798 106.298 100.327 104.28 98.7632 104.955C97.1997 105.63 97.3567 110.09 97.6642 112.615C97.9717 115.14 100.091 113.958 100.091 113.958V112.446C100.091 112.446 99.3127 113.114 98.9202 112.193C98.5277 111.271 98.6062 106.636 98.9987 106.72C99.3912 106.805 100.17 108.233 100.17 108.233C100.17 108.233 100.405 108.071 100.798 106.298Z" fill="#FF5811" stroke="#1C2520" stroke-linecap="round" stroke-linejoin="round"/>
<path d="M99.6726 106.636V117.693C99.6726 118.995 102.453 120.05 105.887 120.05C109.322 120.05 112.095 118.995 112.095 117.693V106.636H99.6726Z" fill="#FF5811" stroke="#1C2520" stroke-linecap="round" stroke-linejoin="round"/>
<path d="M112.095 106.636C112.095 107.762 109.315 108.669 105.887 108.669C102.459 108.669 99.6726 107.762 99.6726 106.636C99.6726 105.511 102.453 104.603 105.887 104.603C109.322 104.603 112.095 105.518 112.095 106.636Z" fill="white" stroke="#1C2520" stroke-linecap="round" stroke-linejoin="round"/>
<path d="M111.284 106.636C111.284 107.614 108.864 108.402 105.887 108.402C102.911 108.402 100.484 107.614 100.484 106.636C100.484 105.658 102.904 104.871 105.887 104.871C108.87 104.871 111.284 105.658 111.284 106.636Z" fill="white" stroke="#1C2520" stroke-linecap="round" stroke-linejoin="round"/>
<path d="M101.72 107.762C104.439 108.615 107.329 108.615 110.048 107.762C107.329 106.908 104.439 106.908 101.72 107.762Z" fill="#1C2520" stroke="#1C2520" stroke-linecap="round" stroke-linejoin="round"/>
<path d="M5.39331 111.686L5.47182 115.471L29.1856 115.724V111.349L5.39331 111.686Z" fill="white" stroke="#1C2520" stroke-linecap="round" stroke-linejoin="round"/>
<path d="M29.1856 115.724L32.6331 107.733V105.377L29.0286 112.108L29.1856 115.724Z" fill="white" stroke="#1C2520" stroke-linecap="round" stroke-linejoin="round"/>
<path d="M5.39331 115.133L5.47182 118.924L29.1856 119.178V114.802L5.39331 115.133Z" fill="white" stroke="#1C2520" stroke-linecap="round" stroke-linejoin="round"/>
<path d="M29.1856 119.178L32.6331 111.18V108.824L29.0286 115.555L29.1856 119.178Z" fill="white" stroke="#1C2520" stroke-linecap="round" stroke-linejoin="round"/>
<path d="M14.5523 102.092C14.5523 102.092 15.1018 100.918 14.3168 100.411C13.5318 99.9047 12.6748 101.114 12.2038 101.501C11.7328 101.888 1.87444 108.908 1.56044 110.005C1.24643 111.103 1.56044 113.522 3.67342 113.79C5.7864 114.057 7.66387 112.531 8.60588 112.277C9.54789 112.024 9.91423 111.94 9.91423 111.94L16.4102 102.514L14.5523 102.092Z" fill="white" stroke="#1C2520" stroke-linecap="round" stroke-linejoin="round"/>
<path d="M3.67276 113.797C5.78574 114.05 7.66321 112.538 8.60522 112.284C9.54722 112.031 9.91356 111.947 9.91356 111.947L10.1491 111.602L4.04563 110.266C3.71381 109.93 3.28718 109.722 2.83334 109.676C2.3795 109.63 1.9244 109.749 1.54015 110.012C1.24577 111.096 1.55978 113.536 3.67276 113.797Z" fill="white" stroke="#1C2520" stroke-linecap="round" stroke-linejoin="round"/>
<path d="M4.06519 110.28H22.382C28.0995 110.28 29.82 109.942 29.82 109.942L33.3394 102.113C33.3394 102.113 22.2185 102.873 18.7841 102.62C17.3649 102.576 15.9515 102.406 14.5581 102.113L4.06519 110.28Z" fill="white" stroke="#1C2520" stroke-linecap="round" stroke-linejoin="round"/>
<path d="M4.06519 110.28L4.37919 111.792C4.37919 111.792 19.2485 111.876 23.1605 111.876C27.0724 111.876 30.0489 112.045 30.0489 112.045L29.8134 109.935L4.06519 110.28Z" fill="white" stroke="#1C2520" stroke-linecap="round" stroke-linejoin="round"/>
<path d="M30.049 112.024L33.3329 103.942V102.092L29.8135 109.921L30.049 112.024Z" fill="white" stroke="#1C2520" stroke-linecap="round" stroke-linejoin="round"/>
<path d="M82.88 121.478H38.0364C37.9371 121.479 37.8386 121.458 37.7465 121.418C37.6545 121.378 37.5708 121.318 37.5002 121.243C37.4297 121.168 37.3737 121.078 37.3355 120.98C37.2973 120.881 37.2776 120.775 37.2776 120.669C37.2776 120.562 37.2973 120.456 37.3355 120.357C37.3737 120.259 37.4297 120.169 37.5002 120.094C37.5708 120.019 37.6545 119.96 37.7465 119.919C37.8386 119.879 37.9371 119.859 38.0364 119.86H82.88C82.979 119.859 83.0772 119.879 83.1689 119.919C83.2606 119.96 83.3439 120.019 83.4139 120.095C83.4839 120.17 83.5393 120.259 83.5768 120.358C83.6143 120.457 83.6332 120.562 83.6323 120.669C83.6332 120.775 83.6143 120.881 83.5768 120.979C83.5393 121.078 83.4839 121.167 83.4139 121.243C83.3439 121.318 83.2606 121.378 83.1689 121.418C83.0772 121.458 82.979 121.479 82.88 121.478Z" fill="white" stroke="#1C2520" stroke-linecap="round" stroke-linejoin="round"/>
<path d="M83.2593 119.846H37.6504C37.4835 119.846 37.3228 119.778 37.2012 119.655C37.0796 119.532 37.0063 119.364 36.9962 119.185L34.5169 87.1451C34.5058 87.0459 34.5144 86.9453 34.5423 86.85C34.5701 86.7546 34.6165 86.6668 34.6784 86.5922C34.7403 86.5177 34.8163 86.4582 34.9012 86.4177C34.9862 86.3772 35.0782 86.3566 35.1711 86.3573H85.7452C85.8381 86.3566 85.9301 86.3772 86.0151 86.4177C86.1 86.4582 86.176 86.5177 86.2379 86.5922C86.2998 86.6668 86.3462 86.7546 86.3741 86.85C86.4019 86.9453 86.4105 87.0459 86.3994 87.1451L83.92 119.185C83.91 119.365 83.8358 119.534 83.7127 119.657C83.5897 119.78 83.4274 119.848 83.2593 119.846Z" fill="white" stroke="#1C2520" stroke-linecap="round" stroke-linejoin="round"/>
<path d="M64.7595 103.654C64.7595 105.567 62.8297 107.114 60.455 107.114C58.0804 107.114 56.144 105.567 56.144 103.654C56.144 101.74 58.0738 100.2 60.455 100.2C62.8362 100.2 64.7595 101.748 64.7595 103.654Z" fill="white" stroke="#1C2520" stroke-linecap="round" stroke-linejoin="round"/>
<path d="M109.328 78.6271C110.028 78.0403 110.519 77.2137 110.722 76.2848C110.869 75.5881 110.853 74.8632 110.676 74.1746" stroke="#1C2520" stroke-linecap="round" stroke-linejoin="round"/>
<path d="M104.108 103.71C104.108 103.71 108.458 100.896 107.039 97.6819C105.619 94.4674 100.817 92.3362 100.817 87.328C100.817 83.0092 105.089 81.4125 107.876 79.6822" stroke="#1C2520" stroke-linecap="round" stroke-linejoin="round"/>
<path d="M108.125 103.619C108.125 103.619 110.552 101.881 110.552 99.1239C110.552 97.274 108.713 96.0641 106.286 93.0888" stroke="#1C2520" stroke-linecap="round" stroke-linejoin="round"/>
<path d="M104.945 91.2881C104.945 91.2881 103.356 89.9447 104.527 87.4195" stroke="#1C2520" stroke-linecap="round" stroke-linejoin="round"/>
<path d="M68.1154 17.608C68.8939 17.4322 70.5621 16.7429 71.6872 13.9364C71.7046 13.8939 71.7139 13.8481 71.7147 13.8018C71.7155 13.7554 71.7078 13.7093 71.692 13.6662C71.6762 13.623 71.6526 13.5837 71.6226 13.5504C71.5926 13.5171 71.5567 13.4905 71.5171 13.4721C71.4372 13.4364 71.3474 13.4355 71.2669 13.4696C71.1863 13.5037 71.1212 13.5702 71.0854 13.655C70.0518 16.2294 68.5734 16.7991 67.9584 16.9258C69.0589 15.4938 69.6665 13.6977 69.6789 11.8403C69.6789 6.95873 65.4726 3.00568 60.285 3.00568C55.0974 3.00568 50.8911 6.95873 50.8911 11.8403C50.8946 13.6228 51.4466 15.3541 52.4611 16.764C51.4733 16.7077 49.8051 17.1579 47.6922 19.8097C47.6318 19.8766 47.5981 19.9661 47.5981 20.0594C47.5981 20.1526 47.6318 20.2421 47.6922 20.3091C47.7528 20.3633 47.8291 20.3931 47.908 20.3935C47.9556 20.3935 48.0026 20.3822 48.0456 20.3603C48.0886 20.3384 48.1265 20.3065 48.1566 20.2669C50.8584 16.8836 52.6442 17.4533 53.004 17.608C52.3932 17.9693 51.8207 18.4009 51.2966 18.8952C48.2809 21.8143 46.4427 27.3359 46.6782 31.9361C46.9429 34.9871 47.9715 37.904 49.6547 40.3768C51.845 38.6912 53.6613 36.5054 54.9731 33.9759C55.9507 32.1179 56.8245 30.199 57.5898 28.2292C57.5898 30.2902 57.8384 32.7802 58.8458 34.5597C59.5725 35.9654 60.6372 37.1352 61.9284 37.947C63.2196 38.7587 64.6899 39.1825 66.1856 39.174C66.7021 39.1819 67.2177 39.1277 67.7229 39.0122C67.7673 39.0002 67.8089 38.9784 67.845 38.9481C67.881 38.9179 67.9107 38.8798 67.9323 38.8363C70.4574 39.4131 72.9694 39.3639 73.3554 38.7871C73.9768 37.8657 74.86 34.9888 75.1543 31.4719C75.6908 25.5071 72.1975 20.3302 68.1154 17.608ZM59.4542 34.1307C58.1851 31.9009 58.2243 28.2644 58.3748 26.1753L58.4598 25.9362C58.5202 28.0848 59.0296 30.1912 59.9503 32.0993C60.8709 34.0073 62.1793 35.668 63.7783 36.9583C64.6616 37.6148 65.6412 38.107 66.6763 38.4143C65.0735 38.5339 61.7765 38.2033 59.4542 34.1307Z" fill="#1C2520"/>
<path d="M59.5654 23.0593C59.5654 23.0593 59.0289 27.3219 64.0661 31.5C69.1032 35.6781 73.8787 34.0322 73.8787 34.0322" stroke="white" stroke-width="0.5" stroke-linecap="round" stroke-linejoin="round"/>
<path d="M60.3044 21.6525C60.3044 21.6525 65.6098 29.9596 72.9365 27.7931" stroke="white" stroke-width="0.5" stroke-linecap="round" stroke-linejoin="round"/>
<path d="M57.6814 18.8882C56.8447 18.4315 55.9075 18.2306 54.9719 18.3075C54.0363 18.3844 53.1384 18.7361 52.376 19.3243C49.5566 21.3431 48.1436 26.112 48.1436 26.112" stroke="white" stroke-width="0.5" stroke-linecap="round" stroke-linejoin="round"/>
<path d="M57.8187 21.2024C57.8187 21.2024 55.5356 20.5482 54.1226 22.0675C53.434 22.7386 52.845 23.519 52.376 24.3817" stroke="white" stroke-width="0.5" stroke-linecap="round" stroke-linejoin="round"/>
</svg>
